<?xml version="1.0" encoding="UTF-8" standalone="no"?>
<!-- Created with Inkscape (http://www.inkscape.org/) -->

<svg
   width="100.02255mm"
   height="103.65609mm"
   viewBox="0 0 100.02255 103.65609"
   version="1.1"
   id="svg1"
   xml:space="preserve"
   inkscape:version="1.3.2 (091e20e, 2023-11-25, custom)"
   sodipodi:docname="new_trees.svg"
   xmlns:inkscape="http://www.inkscape.org/namespaces/inkscape"
   xmlns:sodipodi="http://sodipodi.sourceforge.net/DTD/sodipodi-0.dtd"
   xmlns="http://www.w3.org/2000/svg"
   xmlns:svg="http://www.w3.org/2000/svg"><sodipodi:namedview
     id="namedview1"
     pagecolor="#93b771"
     bordercolor="#000000"
     borderopacity="0.25"
     inkscape:showpageshadow="2"
     inkscape:pageopacity="0.0"
     inkscape:pagecheckerboard="0"
     inkscape:deskcolor="#93b771"
     inkscape:document-units="mm"
     showborder="false"
     inkscape:zoom="0.37675791"
     inkscape:cx="-703.36944"
     inkscape:cy="842.71622"
     inkscape:window-width="1920"
     inkscape:window-height="1051"
     inkscape:window-x="-9"
     inkscape:window-y="-9"
     inkscape:window-maximized="1"
     inkscape:current-layer="layer1" /><defs
     id="defs1" /><g
     inkscape:label="Layer 1"
     inkscape:groupmode="layer"
     id="layer1"
     transform="translate(-43.469792,-96.233281)"><g
       id="g143"
       transform="rotate(10.630166,1107.0117,306.95891)"><g
         id="g107"
         transform="translate(139.71788,71.911176)"><path
           id="path19-1"
           style="fill:#4e7347;fill-opacity:1;stroke:#225555;stroke-width:3.7;stroke-linejoin:round;stroke-dasharray:none;stroke-opacity:1;paint-order:stroke fill markers"
           d="m -94.018777,221.82623 a 5.9569567,5.9569567 0 0 0 -5.715384,4.27738 5.9569567,5.9569567 0 0 0 -6.980339,1.05591 5.9569567,5.9569567 0 0 0 -1.01693,7.06538 5.9569567,5.9569567 0 0 0 -4.1894,5.6829 5.9569567,5.9569567 0 0 0 4.27738,5.71479 5.9569567,5.9569567 0 0 0 1.05591,6.98094 5.9569567,5.9569567 0 0 0 7.06539,1.01634 5.9569567,5.9569567 0 0 0 5.682895,4.18939 5.9569567,5.9569567 0 0 0 5.71479,-4.27739 5.9569567,5.9569567 0 0 0 6.980934,-1.0559 5.9569567,5.9569567 0 0 0 1.015758,-7.06539 5.9569567,5.9569567 0 0 0 4.189976,-5.68231 5.9569567,5.9569567 0 0 0 -4.272656,-5.71301 5.9569567,5.9569567 0 0 0 -1.060042,-6.98271 5.9569567,5.9569567 0 0 0 -7.061844,-1.0187 5.9569567,5.9569567 0 0 0 -5.686438,-4.18762 z" /><path
           id="path20-70"
           style="fill:#678e4a;fill-opacity:1;stroke:none;stroke-width:2.69853;stroke-linejoin:round;stroke-dasharray:none;stroke-opacity:1;paint-order:stroke fill markers"
           d="m -93.986424,228.33548 a 3.8017549,3.8017549 0 0 0 -3.647584,2.72985 3.8017549,3.8017549 0 0 0 -4.454872,0.67388 3.8017549,3.8017549 0 0 0 -0.64902,4.50916 3.8017549,3.8017549 0 0 0 -2.67368,3.62685 3.8017549,3.8017549 0 0 0 2.72984,3.6472 3.8017549,3.8017549 0 0 0 0.67389,4.45526 3.8017549,3.8017549 0 0 0 4.50916,0.64864 3.8017549,3.8017549 0 0 0 3.626842,2.67368 3.8017549,3.8017549 0 0 0 3.647207,-2.72984 3.8017549,3.8017549 0 0 0 4.455262,-0.67388 3.8017549,3.8017549 0 0 0 0.648261,-4.50916 3.8017549,3.8017549 0 0 0 2.674074,-3.62648 3.8017549,3.8017549 0 0 0 -2.726849,-3.64607 3.8017549,3.8017549 0 0 0 -0.676509,-4.45639 3.8017549,3.8017549 0 0 0 -4.506895,-0.65014 3.8017549,3.8017549 0 0 0 -3.629127,-2.67256 z" /></g><g
         id="g109"
         transform="translate(211.26744,123.95947)"><path
           id="path108"
           style="fill:#4e7347;fill-opacity:1;stroke:#225555;stroke-width:3.7;stroke-linejoin:round;stroke-dasharray:none;stroke-opacity:1;paint-order:stroke fill markers"
           d="m -94.018777,221.82623 a 5.9569567,5.9569567 0 0 0 -5.715384,4.27738 5.9569567,5.9569567 0 0 0 -6.980339,1.05591 5.9569567,5.9569567 0 0 0 -1.01693,7.06538 5.9569567,5.9569567 0 0 0 -4.1894,5.6829 5.9569567,5.9569567 0 0 0 4.27738,5.71479 5.9569567,5.9569567 0 0 0 1.05591,6.98094 5.9569567,5.9569567 0 0 0 7.06539,1.01634 5.9569567,5.9569567 0 0 0 5.682895,4.18939 5.9569567,5.9569567 0 0 0 5.71479,-4.27739 5.9569567,5.9569567 0 0 0 6.980934,-1.0559 5.9569567,5.9569567 0 0 0 1.015758,-7.06539 5.9569567,5.9569567 0 0 0 4.189976,-5.68231 5.9569567,5.9569567 0 0 0 -4.272656,-5.71301 5.9569567,5.9569567 0 0 0 -1.060042,-6.98271 5.9569567,5.9569567 0 0 0 -7.061844,-1.0187 5.9569567,5.9569567 0 0 0 -5.686438,-4.18762 z" /><path
           id="path109"
           style="fill:#678e4a;fill-opacity:1;stroke:none;stroke-width:2.69853;stroke-linejoin:round;stroke-dasharray:none;stroke-opacity:1;paint-order:stroke fill markers"
           d="m -93.986424,228.33548 a 3.8017549,3.8017549 0 0 0 -3.647584,2.72985 3.8017549,3.8017549 0 0 0 -4.454872,0.67388 3.8017549,3.8017549 0 0 0 -0.64902,4.50916 3.8017549,3.8017549 0 0 0 -2.67368,3.62685 3.8017549,3.8017549 0 0 0 2.72984,3.6472 3.8017549,3.8017549 0 0 0 0.67389,4.45526 3.8017549,3.8017549 0 0 0 4.50916,0.64864 3.8017549,3.8017549 0 0 0 3.626842,2.67368 3.8017549,3.8017549 0 0 0 3.647207,-2.72984 3.8017549,3.8017549 0 0 0 4.455262,-0.67388 3.8017549,3.8017549 0 0 0 0.648261,-4.50916 3.8017549,3.8017549 0 0 0 2.674074,-3.62648 3.8017549,3.8017549 0 0 0 -2.726849,-3.64607 3.8017549,3.8017549 0 0 0 -0.676509,-4.45639 3.8017549,3.8017549 0 0 0 -4.506895,-0.65014 3.8017549,3.8017549 0 0 0 -3.629127,-2.67256 z" /></g><path
         id="path105"
         style="fill:#4e7347;fill-opacity:1;stroke:#225555;stroke-width:3.7;stroke-linejoin:round;stroke-dasharray:none;stroke-opacity:1;paint-order:stroke fill markers"
         d="m 79.05078,298.03038 a 5.9569569,5.9569569 0 0 0 -4.859652,2.53369 5.9569569,5.9569569 0 0 0 -5.06274,-0.96428 5.9569569,5.9569569 0 0 0 -4.038513,3.7052 5.9569569,5.9569569 0 0 0 -5.139738,0.3793 5.9569569,5.9569569 0 0 0 -2.941423,4.62401 5.9569569,5.9569569 0 0 0 -4.866369,1.69654 5.9569569,5.9569569 0 0 0 -1.644861,5.22759 5.9569569,5.9569569 0 0 0 -4.261239,2.89801 5.9569569,5.9569569 0 0 0 -0.235644,5.47564 5.9569569,5.9569569 0 0 0 -3.366203,3.90208 5.9569569,5.9569569 0 0 0 1.189592,5.35006 5.9569569,5.9569569 0 0 0 -2.241724,4.64055 5.9569569,5.9569569 0 0 0 2.533695,4.85965 5.9569569,5.9569569 0 0 0 -0.963765,5.06274 5.9569569,5.9569569 0 0 0 3.704683,4.038 5.9569569,5.9569569 0 0 0 0.379305,5.13973 5.9569569,5.9569569 0 0 0 4.624008,2.94194 5.9569569,5.9569569 0 0 0 1.696537,4.86637 5.9569569,5.9569569 0 0 0 5.228104,1.64486 5.9569569,5.9569569 0 0 0 2.898015,4.26124 5.9569569,5.9569569 0 0 0 5.475635,0.23565 5.9569569,5.9569569 0 0 0 3.902087,3.3662 5.9569569,5.9569569 0 0 0 5.350061,-1.18959 5.9569569,5.9569569 0 0 0 4.640544,2.24121 5.9569569,5.9569569 0 0 0 4.859135,-2.53318 5.9569569,5.9569569 0 0 0 5.063256,0.96376 5.9569569,5.9569569 0 0 0 4.048332,-3.70055 5.9569569,5.9569569 0 0 0 5.129402,-0.38395 5.9569569,5.9569569 0 0 0 2.95228,-4.62246 5.9569569,5.9569569 0 0 0 4.85603,-1.69809 5.9569569,5.9569569 0 0 0 1.6552,-5.22862 5.9569569,5.9569569 0 0 0 4.2509,-2.89698 5.9569569,5.9569569 0 0 0 0.24598,-5.47925 5.9569569,5.9569569 0 0 0 3.35587,-3.89899 5.9569569,5.9569569 0 0 0 -1.18081,-5.35574 5.9569569,5.9569569 0 0 0 2.23242,-4.63435 5.9569569,5.9569569 0 0 0 -2.51819,-4.86223 5.9569569,5.9569569 0 0 0 0.94878,-5.06016 5.9569569,5.9569569 0 0 0 -3.69486,-4.03438 5.9569569,5.9569569 0 0 0 -0.38964,-5.14335 5.9569569,5.9569569 0 0 0 -4.61316,-2.94039 5.9569569,5.9569569 0 0 0 -1.70739,-4.86792 5.9569569,5.9569569 0 0 0 -5.21674,-1.64641 5.9569569,5.9569569 0 0 0 -2.90938,-4.25969 5.9569569,5.9569569 0 0 0 -5.4653,-0.23978 5.9569569,5.9569569 0 0 0 -3.912422,-3.36207 5.9569569,5.9569569 0 0 0 -5.341276,1.18288 5.9569569,5.9569569 0 0 0 -4.648812,-2.23449 z" /><path
         id="path106"
         style="fill:#678e4a;fill-opacity:1;stroke:none;stroke-width:4.43592;stroke-linejoin:round;stroke-dasharray:none;stroke-opacity:1;paint-order:stroke fill markers"
         d="m 79.358357,309.18847 a 6.2494516,6.2494516 0 0 0 -6.092648,4.92978 6.2494516,6.2494516 0 0 0 -7.469925,-0.92438 6.2494516,6.2494516 0 0 0 -2.810907,7.31568 6.2494516,6.2494516 0 0 0 -6.931534,2.93355 6.2494516,6.2494516 0 0 0 1.222994,7.74129 6.2494516,6.2494516 0 0 0 -4.535721,6.00655 6.2494516,6.2494516 0 0 0 4.929754,6.09264 6.2494516,6.2494516 0 0 0 -0.925001,7.46995 6.2494516,6.2494516 0 0 0 7.316289,2.81089 6.2494516,6.2494516 0 0 0 2.933574,6.93153 6.2494516,6.2494516 0 0 0 7.741273,-1.22299 6.2494516,6.2494516 0 0 0 6.006552,4.53571 6.2494516,6.2494516 0 0 0 6.092665,-4.92976 6.2494516,6.2494516 0 0 0 7.469924,0.92502 6.2494516,6.2494516 0 0 0 2.82763,-7.31009 6.2494516,6.2494516 0 0 0 6.914814,-2.93977 6.2494516,6.2494516 0 0 0 -1.22363,-7.74128 6.2494516,6.2494516 0 0 0 4.53636,-6.00655 6.2494516,6.2494516 0 0 0 -4.91675,-6.10383 6.2494516,6.2494516 0 0 0 0.91136,-7.45877 6.2494516,6.2494516 0 0 0 -7.313819,-2.81152 6.2494516,6.2494516 0 0 0 -2.935414,-6.93091 6.2494516,6.2494516 0 0 0 -7.740676,1.22238 6.2494516,6.2494516 0 0 0 -6.007164,-4.53512 z" /><path
         id="path107"
         style="fill:#83a64c;fill-opacity:1;stroke:none;stroke-width:3.28148;stroke-linejoin:round;stroke-dasharray:none;stroke-opacity:1;paint-order:stroke fill markers"
         d="m 79.981268,322.53584 a 4.6230335,4.6230335 0 0 0 -4.435557,3.31957 4.6230335,4.6230335 0 0 0 -5.417245,0.81946 4.6230335,4.6230335 0 0 0 -0.789217,5.48325 4.6230335,4.6230335 0 0 0 -3.251272,4.41035 4.6230335,4.6230335 0 0 0 3.319559,4.43509 4.6230335,4.6230335 0 0 0 0.819472,5.41771 4.6230335,4.6230335 0 0 0 5.483254,0.78877 4.6230335,4.6230335 0 0 0 4.410335,3.25126 4.6230335,4.6230335 0 0 0 4.435099,-3.31956 4.6230335,4.6230335 0 0 0 5.417715,-0.81945 4.6230335,4.6230335 0 0 0 0.788302,-5.48326 4.6230335,4.6230335 0 0 0 3.251744,-4.40989 4.6230335,4.6230335 0 0 0 -3.315919,-4.43372 4.6230335,4.6230335 0 0 0 -0.822653,-5.41909 4.6230335,4.6230335 0 0 0 -5.480502,-0.79058 4.6230335,4.6230335 0 0 0 -4.413115,-3.24991 z" /></g></g></svg>
