<?xml version="1.0" encoding="UTF-8" standalone="no"?>
<!-- Created with Inkscape (http://www.inkscape.org/) -->

<svg
   width="55.763794mm"
   height="55.763813mm"
   viewBox="0 0 55.763794 55.763813"
   version="1.1"
   id="svg1"
   xml:space="preserve"
   inkscape:version="1.3.2 (091e20e, 2023-11-25, custom)"
   sodipodi:docname="new_trees.svg"
   xmlns:inkscape="http://www.inkscape.org/namespaces/inkscape"
   xmlns:sodipodi="http://sodipodi.sourceforge.net/DTD/sodipodi-0.dtd"
   xmlns="http://www.w3.org/2000/svg"
   xmlns:svg="http://www.w3.org/2000/svg"><sodipodi:namedview
     id="namedview1"
     pagecolor="#93b771"
     bordercolor="#000000"
     borderopacity="0.25"
     inkscape:showpageshadow="2"
     inkscape:pageopacity="0.0"
     inkscape:pagecheckerboard="0"
     inkscape:deskcolor="#93b771"
     inkscape:document-units="mm"
     showborder="false"
     inkscape:zoom="0.37675791"
     inkscape:cx="-703.36944"
     inkscape:cy="842.71622"
     inkscape:window-width="1920"
     inkscape:window-height="1051"
     inkscape:window-x="-9"
     inkscape:window-y="-9"
     inkscape:window-maximized="1"
     inkscape:current-layer="layer1" /><defs
     id="defs1" /><g
     inkscape:label="Layer 1"
     inkscape:groupmode="layer"
     id="layer1"
     transform="translate(124.70182,-144.12556)"><g
       id="g145"
       transform="translate(-172.8082,24.392779)"><path
         id="ellipse39"
         style="fill:#4e7347;fill-opacity:1;stroke:#225555;stroke-width:3.7;stroke-linejoin:round;stroke-dasharray:none;stroke-opacity:1;paint-order:stroke fill markers"
         d="m 75.328331,121.58278 a 5.9569567,5.9569567 0 0 0 -5.807505,4.69904 5.9569567,5.9569567 0 0 0 -7.120298,-0.88111 5.9569567,5.9569567 0 0 0 -2.679342,6.97326 5.9569567,5.9569567 0 0 0 -6.607116,2.79628 5.9569567,5.9569567 0 0 0 1.16575,7.37896 5.9569567,5.9569567 0 0 0 -4.323443,5.72542 5.9569567,5.9569567 0 0 0 4.699033,5.8075 5.9569567,5.9569567 0 0 0 -0.881698,7.12032 5.9569567,5.9569567 0 0 0 6.973849,2.67933 5.9569567,5.9569567 0 0 0 2.796273,6.60712 5.9569567,5.9569567 0 0 0 7.378968,-1.16575 5.9569567,5.9569567 0 0 0 5.725418,4.32344 5.9569567,5.9569567 0 0 0 5.807505,-4.69903 5.9569567,5.9569567 0 0 0 7.12031,0.88169 5.9569567,5.9569567 0 0 0 2.695284,-6.96794 5.9569567,5.9569567 0 0 0 6.591174,-2.80218 5.9569567,5.9569567 0 0 0 -1.166344,-7.37896 5.9569567,5.9569567 0 0 0 4.324031,-5.72542 5.9569567,5.9569567 0 0 0 -4.686627,-5.81814 5.9569567,5.9569567 0 0 0 0.868704,-7.10968 5.9569567,5.9569567 0 0 0 -6.971495,-2.67994 5.9569567,5.9569567 0 0 0 -2.798033,-6.60652 5.9569567,5.9569567 0 0 0 -7.378385,1.16516 5.9569567,5.9569567 0 0 0 -5.726013,-4.32285 z" /><path
         id="path51"
         style="fill:#678e4a;fill-opacity:1;stroke:none;stroke-width:3.05936;stroke-linejoin:round;stroke-dasharray:none;stroke-opacity:1;paint-order:stroke fill markers"
         d="m 75.510778,128.77951 a 4.310107,4.310107 0 0 0 -4.201964,3.39996 4.310107,4.310107 0 0 0 -5.151839,-0.63753 4.310107,4.310107 0 0 0 -1.93862,5.04546 4.310107,4.310107 0 0 0 -4.780524,2.02321 4.310107,4.310107 0 0 0 0.843471,5.33899 4.310107,4.310107 0 0 0 -3.128185,4.14259 4.310107,4.310107 0 0 0 3.399941,4.20196 4.310107,4.310107 0 0 0 -0.637952,5.15185 4.310107,4.310107 0 0 0 5.04588,1.93861 4.310107,4.310107 0 0 0 2.023221,4.78052 4.310107,4.310107 0 0 0 5.338983,-0.84347 4.310107,4.310107 0 0 0 4.142584,3.12818 4.310107,4.310107 0 0 0 4.201975,-3.39994 4.310107,4.310107 0 0 0 5.15184,0.63796 4.310107,4.310107 0 0 0 1.95015,-5.04161 4.310107,4.310107 0 0 0 4.768993,-2.02749 4.310107,4.310107 0 0 0 -0.843905,-5.33898 4.310107,4.310107 0 0 0 3.128619,-4.14259 4.310107,4.310107 0 0 0 -3.390969,-4.20967 4.310107,4.310107 0 0 0 0.628546,-5.14415 4.310107,4.310107 0 0 0 -5.044178,-1.93904 4.310107,4.310107 0 0 0 -2.024489,-4.7801 4.310107,4.310107 0 0 0 -5.338572,0.84305 4.310107,4.310107 0 0 0 -4.143006,-3.12777 z" /><g
         id="g53"
         transform="matrix(1.1808092,0.68174052,-0.68174052,1.1808092,57.906388,-142.49513)"><circle
           style="fill:#83a64c;fill-opacity:1;stroke:none;stroke-width:6.73592;stroke-linejoin:round;stroke-dasharray:none;stroke-opacity:1;paint-order:stroke fill markers"
           id="path18-2"
           cx="118.0021"
           cy="180.99359"
           r="3.6690266" /><circle
           style="fill:#83a64c;fill-opacity:1;stroke:none;stroke-width:6.73592;stroke-linejoin:round;stroke-dasharray:none;stroke-opacity:1;paint-order:stroke fill markers"
           id="circle51"
           cx="118.0021"
           cy="174.14751"
           r="3.6690266" /><circle
           style="fill:#83a64c;fill-opacity:1;stroke:none;stroke-width:6.73592;stroke-linejoin:round;stroke-dasharray:none;stroke-opacity:1;paint-order:stroke fill markers"
           id="circle52"
           cx="121.30939"
           cy="177.77725"
           r="3.6690266" /><circle
           style="fill:#83a64c;fill-opacity:1;stroke:none;stroke-width:6.73592;stroke-linejoin:round;stroke-dasharray:none;stroke-opacity:1;paint-order:stroke fill markers"
           id="circle53"
           cx="114.33307"
           cy="177.77725"
           r="3.6690266" /></g></g></g></svg>
