<?xml version="1.0" encoding="UTF-8" standalone="no"?>
<!-- Created with Inkscape (http://www.inkscape.org/) -->

<svg
   xmlns:dc="http://purl.org/dc/elements/1.1/"
   xmlns:cc="http://creativecommons.org/ns#"
   xmlns:rdf="http://www.w3.org/1999/02/22-rdf-syntax-ns#"
   xmlns:svg="http://www.w3.org/2000/svg"
   xmlns="http://www.w3.org/2000/svg"
   xmlns:sodipodi="http://sodipodi.sourceforge.net/DTD/sodipodi-0.dtd"
   xmlns:inkscape="http://www.inkscape.org/namespaces/inkscape"
   width="15.200364mm"
   height="15.282019mm"
   viewBox="0 0 15.200364 15.282019"
   version="1.1"
   id="svg2722"
   inkscape:version="0.92.4 (5da689c313, 2019-01-14)"
   sodipodi:docname="item_raw_meat.svg">
  <defs
     id="defs2716">
    <clipPath
       clipPathUnits="userSpaceOnUse"
       id="clipPath2720">
      <path
         sodipodi:nodetypes="csccscc"
         inkscape:connector-curvature="0"
         id="path2722"
         d="m 185.46513,113.32455 c 2.87126,-1.94661 5.01252,-0.9733 5.59651,0.63265 0.58398,1.60595 0.43799,2.0926 1.16797,2.38459 0.72998,0.29199 2.5306,-0.0974 2.91991,0.63266 0.38932,0.72997 1.89795,4.4772 1.2653,5.20717 -0.63265,0.72998 -6.56981,3.84455 -8.61374,1.45997 -2.68006,-3.26731 -4.71149,-8.5429 -2.33595,-10.31704 z"
         style="fill:#e4bdba;fill-opacity:1;stroke:#3d7454;stroke-width:3;stroke-linecap:butt;stroke-linejoin:miter;stroke-miterlimit:4;stroke-dasharray:none;stroke-opacity:1;paint-order:stroke fill markers" />
    </clipPath>
  </defs>
  <sodipodi:namedview
     id="base"
     pagecolor="#ffffff"
     bordercolor="#666666"
     borderopacity="1.0"
     inkscape:pageopacity="0.0"
     inkscape:pageshadow="2"
     inkscape:zoom="0.7"
     inkscape:cx="-152.2848"
     inkscape:cy="44.406819"
     inkscape:document-units="mm"
     inkscape:current-layer="layer1"
     showgrid="false"
     inkscape:window-width="1920"
     inkscape:window-height="1027"
     inkscape:window-x="-8"
     inkscape:window-y="-8"
     inkscape:window-maximized="1"
     fit-margin-top="0"
     fit-margin-left="0"
     fit-margin-right="0"
     fit-margin-bottom="0" />
  <metadata
     id="metadata2719">
    <rdf:RDF>
      <cc:Work
         rdf:about="">
        <dc:format>image/svg+xml</dc:format>
        <dc:type
           rdf:resource="http://purl.org/dc/dcmitype/StillImage" />
        <dc:title></dc:title>
      </cc:Work>
    </rdf:RDF>
  </metadata>
  <g
     inkscape:label="Layer 1"
     inkscape:groupmode="layer"
     id="layer1"
     transform="translate(-108.81648,-152.53161)">
    <g
       transform="translate(-74.096191,41.787717)"
       id="g2848">
      <path
         sodipodi:nodetypes="csccscc"
         inkscape:connector-curvature="0"
         id="path2701"
         d="m 185.46513,113.32455 c 2.87126,-1.94661 5.01252,-0.9733 5.59651,0.63265 0.58398,1.60595 0.43799,2.0926 1.16797,2.38459 0.72998,0.29199 2.5306,-0.0974 2.91991,0.63266 0.38932,0.72997 1.89795,4.4772 1.2653,5.20717 -0.63265,0.72998 -6.56981,3.84455 -8.61374,1.45997 -2.68006,-3.26731 -4.71149,-8.5429 -2.33595,-10.31704 z"
         style="fill:#e4bdba;fill-opacity:1;stroke:#3d7454;stroke-width:3;stroke-linecap:butt;stroke-linejoin:miter;stroke-miterlimit:4;stroke-dasharray:none;stroke-opacity:1;paint-order:stroke fill markers" />
      <path
         clip-path="url(#clipPath2720)"
         sodipodi:nodetypes="csccscc"
         inkscape:connector-curvature="0"
         id="path2701-1"
         d="m 186.52941,112.18618 c 2.87126,-1.94661 5.01252,-0.9733 5.59651,0.63265 0.58398,1.60595 0.43799,2.0926 1.16797,2.38459 0.72998,0.29199 2.5306,-0.0974 2.91991,0.63266 0.38932,0.72997 1.89795,4.4772 1.2653,5.20717 -0.63265,0.72998 -6.56981,3.84455 -8.61374,1.45997 -2.68006,-3.26731 -4.71149,-8.5429 -2.33595,-10.31704 z"
         style="fill:#e18278;fill-opacity:1;stroke:none;stroke-width:3;stroke-linecap:butt;stroke-linejoin:miter;stroke-miterlimit:4;stroke-dasharray:none;stroke-opacity:1;paint-order:stroke fill markers" />
      <ellipse
         transform="rotate(-86.260243)"
         ry="1.059605"
         rx="1.134225"
         cy="201.19836"
         cx="-106.31503"
         id="path2724"
         style="opacity:1;fill:#e4bdba;fill-opacity:1;stroke:none;stroke-width:3.82894731;stroke-linecap:round;stroke-linejoin:miter;stroke-miterlimit:4;stroke-dasharray:none;stroke-opacity:1;paint-order:stroke fill markers" />
      <path
         sodipodi:nodetypes="ccscccccccc"
         inkscape:connector-curvature="0"
         id="path2726"
         d="m 192.04652,116.29573 c 0,0 -0.89435,1.55199 -0.94112,2.2068 -0.0468,0.65481 1.22175,4.24776 1.57254,4.52839 0.35079,0.28063 0.81852,0.51449 0.56127,0.46772 -0.25725,-0.0468 -1.21608,-0.11693 -1.21608,-0.11693 0,0 -0.53094,-2.41231 -0.92782,-3.55333 -0.99453,-1.4706 -3.12656,-1.54184 -4.66328,-1.0914 l -0.16536,-0.51263 c 0.93471,-0.13141 4.13204,0.23645 4.34909,-0.0331 0.34726,-0.46302 1.10794,-2.497 1.10794,-2.497 z"
         style="fill:#e4bdba;fill-opacity:1;stroke:#e4bdba;stroke-width:0.26458332px;stroke-linecap:butt;stroke-linejoin:miter;stroke-opacity:1" />
    </g>
  </g>
</svg>
