<?xml version="1.0" encoding="UTF-8" standalone="no"?>
<!-- Created with Inkscape (http://www.inkscape.org/) -->

<svg
   width="29.057383mm"
   height="26.255154mm"
   viewBox="0 0 29.057383 26.255154"
   version="1.1"
   id="svg1"
   xml:space="preserve"
   inkscape:version="1.3.2 (091e20e, 2023-11-25, custom)"
   sodipodi:docname="rock_new_s.svg"
   xmlns:inkscape="http://www.inkscape.org/namespaces/inkscape"
   xmlns:sodipodi="http://sodipodi.sourceforge.net/DTD/sodipodi-0.dtd"
   xmlns="http://www.w3.org/2000/svg"
   xmlns:svg="http://www.w3.org/2000/svg"><sodipodi:namedview
     id="namedview1"
     pagecolor="#93b771"
     bordercolor="#000000"
     borderopacity="0.25"
     inkscape:showpageshadow="2"
     inkscape:pageopacity="0.0"
     inkscape:pagecheckerboard="0"
     inkscape:deskcolor="#93b771"
     inkscape:document-units="mm"
     inkscape:zoom="3.1547718"
     inkscape:cx="-11.252795"
     inkscape:cy="94.935553"
     inkscape:window-width="1920"
     inkscape:window-height="1051"
     inkscape:window-x="-9"
     inkscape:window-y="-9"
     inkscape:window-maximized="1"
     inkscape:current-layer="g87"
     showborder="false" /><defs
     id="defs1"><clipPath
       clipPathUnits="userSpaceOnUse"
       id="clipPath9"><path
         sodipodi:type="star"
         style="fill:#807b6e;fill-opacity:1;stroke:#225555;stroke-width:3.48737;stroke-linejoin:round;stroke-dasharray:none;stroke-opacity:1;paint-order:stroke fill markers"
         id="path10"
         inkscape:flatsided="true"
         sodipodi:sides="6"
         sodipodi:cx="86.5868"
         sodipodi:cy="180.12582"
         sodipodi:r1="13.420413"
         sodipodi:r2="12.091374"
         sodipodi:arg1="0.78539816"
         sodipodi:arg2="1.3089969"
         inkscape:rounded="0.7"
         inkscape:randomized="0"
         d="m 96.076465,189.61549 c -6.642766,6.64276 -3.888937,5.90488 -12.963124,3.47346 -9.074186,-2.43142 -7.058244,-0.41548 -9.489665,-9.48967 -2.431421,-9.07418 -3.169307,-6.32036 3.473459,-12.96312 6.642765,-6.64277 3.888937,-5.90488 12.963123,-3.47346 9.074187,2.43142 7.058244,0.41548 9.489665,9.48967 2.431417,9.07418 3.169307,6.32035 -3.473458,12.96312 z"
         inkscape:transform-center-x="0.32861436"
         inkscape:transform-center-y="-0.18972701"
         transform="matrix(0.83093549,-0.2226485,0.2226485,0.83093549,123.25745,-58.441708)" /></clipPath></defs><g
     inkscape:label="Layer 1"
     inkscape:groupmode="layer"
     id="layer1"
     transform="translate(-172.80925,-12.865759)"><g
       id="g87"
       transform="translate(-47.972302,-45.959478)"><path
         sodipodi:type="star"
         style="fill:#807b6e;fill-opacity:1;stroke:none;stroke-width:3.48737;stroke-linejoin:round;stroke-dasharray:none;stroke-opacity:1;paint-order:stroke fill markers"
         id="path30-7"
         inkscape:flatsided="true"
         sodipodi:sides="7"
         sodipodi:cx="86.5868"
         sodipodi:cy="180.12582"
         sodipodi:r1="13.420413"
         sodipodi:r2="12.091374"
         sodipodi:arg1="0.78539816"
         sodipodi:arg2="1.2341971"
         inkscape:rounded="0.7"
         inkscape:randomized="0"
         d="m 96.076465,189.61549 c -5.764376,5.76437 -2.891475,4.7591 -10.992275,3.84636 -8.1008,-0.91274 -5.523622,0.70661 -9.860779,-6.19594 -4.337156,-6.90254 -3.99637,-3.87798 -1.303916,-11.57257 2.692455,-7.69459 0.540231,-5.54237 8.234823,-8.23482 7.694592,-2.69245 4.670027,-3.03324 11.572572,1.30392 6.90255,4.33715 5.283197,1.75997 6.195938,9.86077 0.912742,8.1008 1.918012,5.2279 -3.846363,10.99228 z"
         inkscape:transform-center-x="0.18704655"
         inkscape:transform-center-y="-0.18704688"
         transform="matrix(0.59969518,0,0,0.59969518,183.83428,-36.254869)" /><path
         sodipodi:type="star"
         style="fill:#807b6e;fill-opacity:1;stroke:#225555;stroke-width:3.48737;stroke-linejoin:round;stroke-dasharray:none;stroke-opacity:1;paint-order:stroke fill markers"
         id="path31-5"
         inkscape:flatsided="true"
         sodipodi:sides="6"
         sodipodi:cx="86.5868"
         sodipodi:cy="180.12582"
         sodipodi:r1="13.420413"
         sodipodi:r2="12.091374"
         sodipodi:arg1="0.78539816"
         sodipodi:arg2="1.3089969"
         inkscape:rounded="0.7"
         inkscape:randomized="0"
         d="m 96.076465,189.61549 c -6.642766,6.64276 -3.888937,5.90488 -12.963124,3.47346 -9.074186,-2.43142 -7.058244,-0.41548 -9.489665,-9.48967 -2.431421,-9.07418 -3.169307,-6.32036 3.473459,-12.96312 6.642765,-6.64277 3.888937,-5.90488 12.963123,-3.47346 9.074187,2.43142 7.058244,0.41548 9.489665,9.48967 2.431417,9.07418 3.169307,6.32035 -3.473458,12.96312 z"
         inkscape:transform-center-x="0.32861436"
         inkscape:transform-center-y="-0.18972701"
         transform="matrix(0.8309355,-0.2226485,0.2226485,0.8309355,123.25745,-58.441707)" /><g
         id="g1"
         clip-path="url(#clipPath9)"><path
           id="path32-5"
           clip-path="none"
           style="fill:#787367;stroke-width:3;stroke-linejoin:round;paint-order:stroke fill markers"
           inkscape:transform-center-x="0.074281912"
           inkscape:transform-center-y="-1.2015018"
           transform="matrix(2.3540731,-0.02412601,0.02412601,2.3540731,-24.812831,-280.01971)"
           d="m 106.09377,155.85391 -2.98276,-5.16629 5.96552,0 z" /><path
           id="path33-0"
           clip-path="none"
           style="fill:#787367;stroke-width:3;stroke-linejoin:round;paint-order:stroke fill markers"
           inkscape:transform-center-x="0.074281912"
           inkscape:transform-center-y="-1.2015018"
           transform="matrix(2.3540731,-0.02412601,0.02412601,2.3540731,-18.009071,-292.05472)"
           d="m 106.09377,155.85391 -2.98276,-5.16629 5.96552,0 z" /><path
           id="path34-6"
           clip-path="none"
           style="fill:#787367;stroke-width:3;stroke-linejoin:round;paint-order:stroke fill markers"
           inkscape:transform-center-x="0.074281912"
           inkscape:transform-center-y="-1.2015018"
           transform="matrix(2.3540731,-0.02412601,0.02412601,2.3540731,-10.880321,-280.14551)"
           d="m 106.26713,156.14539 -3.15612,-5.45777 h 5.96552 z"
           sodipodi:nodetypes="cccc" /></g><path
         sodipodi:type="star"
         style="fill:#9b9681;fill-opacity:1;stroke:none;stroke-width:3.48737;stroke-linejoin:round;stroke-dasharray:none;stroke-opacity:1;paint-order:stroke fill markers"
         id="path37-2"
         inkscape:flatsided="true"
         sodipodi:sides="5"
         sodipodi:cx="86.5868"
         sodipodi:cy="180.12582"
         sodipodi:r1="13.420413"
         sodipodi:r2="12.091374"
         sodipodi:arg1="0.78539816"
         sodipodi:arg2="1.4137167"
         inkscape:rounded="0.7"
         inkscape:randomized="0"
         d="m 96.076465,189.61549 c -7.80904,7.80904 -5.742442,7.48172 -15.582405,2.46801 -9.839964,-5.01371 -8.890053,-3.14941 -7.162446,-14.05709 1.727607,-10.90768 0.248087,-9.42816 11.15577,-11.15577 10.907684,-1.72761 9.043379,-2.67752 14.057091,7.16244 5.013715,9.83997 5.341025,7.77337 -2.46801,15.58241 z"
         inkscape:transform-center-x="0.31844666"
         inkscape:transform-center-y="0.26360573"
         transform="matrix(0.54787369,0,0,0.54787369,187.9454,-26.820163)" /></g></g></svg>
