<?xml version="1.0" encoding="UTF-8" standalone="no"?>
<!-- Created with Inkscape (http://www.inkscape.org/) -->

<svg
   width="39.683041mm"
   height="39.683029mm"
   viewBox="0 0 39.683041 39.683029"
   version="1.1"
   id="svg1"
   xml:space="preserve"
   inkscape:version="1.3.2 (091e20e, 2023-11-25, custom)"
   sodipodi:docname="new_trees.svg"
   xmlns:inkscape="http://www.inkscape.org/namespaces/inkscape"
   xmlns:sodipodi="http://sodipodi.sourceforge.net/DTD/sodipodi-0.dtd"
   xmlns="http://www.w3.org/2000/svg"
   xmlns:svg="http://www.w3.org/2000/svg"><sodipodi:namedview
     id="namedview1"
     pagecolor="#93b771"
     bordercolor="#000000"
     borderopacity="0.25"
     inkscape:showpageshadow="2"
     inkscape:pageopacity="0.0"
     inkscape:pagecheckerboard="0"
     inkscape:deskcolor="#93b771"
     inkscape:document-units="mm"
     showborder="false"
     inkscape:zoom="0.37675791"
     inkscape:cx="-703.36944"
     inkscape:cy="842.71622"
     inkscape:window-width="1920"
     inkscape:window-height="1051"
     inkscape:window-x="-9"
     inkscape:window-y="-9"
     inkscape:window-maximized="1"
     inkscape:current-layer="layer1" /><defs
     id="defs1" /><g
     inkscape:label="Layer 1"
     inkscape:groupmode="layer"
     id="layer1"
     transform="translate(176.11762,-160.20634)"><g
       id="g146"
       transform="translate(-231.40409,95.325269)"><path
         id="path19"
         style="fill:#4e7347;fill-opacity:1;stroke:#225555;stroke-width:3.7;stroke-linejoin:round;stroke-dasharray:none;stroke-opacity:1;paint-order:stroke fill markers"
         d="m 75.038536,66.731068 a 5.9569567,5.9569567 0 0 0 -5.715384,4.277382 5.9569567,5.9569567 0 0 0 -6.98034,1.055909 5.9569567,5.9569567 0 0 0 -1.016936,7.065385 5.9569567,5.9569567 0 0 0 -4.189393,5.682899 5.9569567,5.9569567 0 0 0 4.277376,5.714789 5.9569567,5.9569567 0 0 0 1.055917,6.980934 5.9569567,5.9569567 0 0 0 7.065387,1.016341 5.9569567,5.9569567 0 0 0 5.682895,4.189393 5.9569567,5.9569567 0 0 0 5.71479,-4.277388 5.9569567,5.9569567 0 0 0 6.980934,-1.055904 5.9569567,5.9569567 0 0 0 1.015758,-7.065387 5.9569567,5.9569567 0 0 0 4.189976,-5.682306 5.9569567,5.9569567 0 0 0 -4.272656,-5.713017 5.9569567,5.9569567 0 0 0 -1.060042,-6.982708 5.9569567,5.9569567 0 0 0 -7.061844,-1.018704 5.9569567,5.9569567 0 0 0 -5.686438,-4.187618 z" /><path
         id="path20"
         style="fill:#678e4a;fill-opacity:1;stroke:none;stroke-width:2.69853;stroke-linejoin:round;stroke-dasharray:none;stroke-opacity:1;paint-order:stroke fill markers"
         d="m 75.070889,73.240323 a 3.8017549,3.8017549 0 0 0 -3.647584,2.729844 3.8017549,3.8017549 0 0 0 -4.454875,0.673882 3.8017549,3.8017549 0 0 0 -0.649013,4.50916 3.8017549,3.8017549 0 0 0 -2.673686,3.626851 3.8017549,3.8017549 0 0 0 2.729842,3.647201 3.8017549,3.8017549 0 0 0 0.673893,4.455264 3.8017549,3.8017549 0 0 0 4.509157,0.648631 3.8017549,3.8017549 0 0 0 3.626842,2.673689 3.8017549,3.8017549 0 0 0 3.647207,-2.729848 3.8017549,3.8017549 0 0 0 4.455262,-0.673881 3.8017549,3.8017549 0 0 0 0.648261,-4.50916 3.8017549,3.8017549 0 0 0 2.674074,-3.626473 3.8017549,3.8017549 0 0 0 -2.726849,-3.646072 3.8017549,3.8017549 0 0 0 -0.676509,-4.456393 3.8017549,3.8017549 0 0 0 -4.506895,-0.650141 3.8017549,3.8017549 0 0 0 -3.629127,-2.672554 z" /><circle
         style="fill:#83a64c;fill-opacity:1;stroke:none;stroke-width:7.69775;stroke-linejoin:round;stroke-dasharray:none;stroke-opacity:1;paint-order:stroke fill markers"
         id="circle20"
         cx="75.127991"
         cy="84.722588"
         r="4.1929317" /></g></g></svg>
