<?xml version="1.0" encoding="UTF-8" standalone="no"?>
<!-- Created with Inkscape (http://www.inkscape.org/) -->

<svg
   xmlns:dc="http://purl.org/dc/elements/1.1/"
   xmlns:cc="http://creativecommons.org/ns#"
   xmlns:rdf="http://www.w3.org/1999/02/22-rdf-syntax-ns#"
   xmlns:svg="http://www.w3.org/2000/svg"
   xmlns="http://www.w3.org/2000/svg"
   xmlns:sodipodi="http://sodipodi.sourceforge.net/DTD/sodipodi-0.dtd"
   xmlns:inkscape="http://www.inkscape.org/namespaces/inkscape"
   width="16.301918mm"
   height="20.39793mm"
   viewBox="0 0 16.301918 20.39793"
   version="1.1"
   id="svg2132"
   inkscape:version="0.92.4 (5da689c313, 2019-01-14)"
   sodipodi:docname="item_wolf_fur.svg">
  <defs
     id="defs2126">
    <clipPath
       clipPathUnits="userSpaceOnUse"
       id="clipPath1773">
      <path
         sodipodi:nodetypes="ccscsccccccccccccccsccc"
         id="path1775"
         d="m 187.97998,75.756675 c 0,0 -0.43335,0.05831 -1.06867,0.669726 -1.04681,1.007372 -1.47475,2.166194 -2.18385,2.363163 -0.7091,0.196972 -2.79192,-0.297989 -3.18586,-0.02222 -0.39395,0.27576 -0.537,0.312868 -0.34003,0.746207 0.19697,0.43334 3.38526,0.06389 3.0701,1.482082 -0.31515,1.418199 0.0737,2.836739 0.15245,3.782198 0.0788,0.94547 -0.38885,2.048195 -0.31006,2.639116 -0.23517,1.218297 -3.06189,4.842846 -1.6986,5.363498 1.5643,0.05894 3.11105,-3.526943 4.26485,-3.275253 0.55152,0.15758 0.91896,3.757387 0.91896,3.757387 0.31057,0.458288 0.5355,0.317148 0.73666,0.0096 0.007,-9e-5 0.35251,-3.599863 0.90133,-3.756679 1.65209,0.165267 3.10008,3.517453 4.31963,3.264919 1.57228,-1.421831 -1.74784,-4.099113 -1.711,-5.363499 0.0788,-0.59092 -0.38834,-1.693645 -0.30955,-2.639115 0.0788,-0.945423 0.46757,-2.363962 0.15245,-3.782163 -0.31515,-1.418188 2.84368,-1.040472 3.04065,-1.473811 0.19698,-0.43334 0.0829,-0.478716 -0.31109,-0.754476 -0.39394,-0.27577 -2.47624,0.219192 -3.18534,0.02223 -0.7091,-0.196969 -1.13704,-1.355794 -2.18385,-2.363163 -0.63532,-0.61141 -1.06918,-0.669726 -1.06918,-0.669726 z"
         clip-path="none"
         style="fill:#453134;fill-opacity:1;stroke:#3d7454;stroke-width:2.5999999;stroke-linecap:round;stroke-linejoin:round;stroke-miterlimit:4;stroke-dasharray:none;stroke-opacity:1;paint-order:stroke fill markers"
         inkscape:connector-curvature="0" />
    </clipPath>
  </defs>
  <sodipodi:namedview
     id="base"
     pagecolor="#ffffff"
     bordercolor="#666666"
     borderopacity="1.0"
     inkscape:pageopacity="0.0"
     inkscape:pageshadow="2"
     inkscape:zoom="1.979899"
     inkscape:cx="42.563364"
     inkscape:cy="34.03779"
     inkscape:document-units="mm"
     inkscape:current-layer="layer1"
     showgrid="false"
     fit-margin-top="0"
     fit-margin-left="0"
     fit-margin-right="0"
     fit-margin-bottom="0"
     inkscape:window-width="1920"
     inkscape:window-height="1027"
     inkscape:window-x="-8"
     inkscape:window-y="-8"
     inkscape:window-maximized="1" />
  <metadata
     id="metadata2129">
    <rdf:RDF>
      <cc:Work
         rdf:about="">
        <dc:format>image/svg+xml</dc:format>
        <dc:type
           rdf:resource="http://purl.org/dc/dcmitype/StillImage" />
        <dc:title></dc:title>
      </cc:Work>
    </rdf:RDF>
  </metadata>
  <g
     inkscape:label="Layer 1"
     inkscape:groupmode="layer"
     id="layer1"
     transform="translate(-100.70618,-152.99746)">
    <g
       transform="translate(-79.110995,89.05797)"
       id="g1978">
      <path
         sodipodi:nodetypes="ccscsccccccccccccccsccc"
         id="path3594"
         d="m 187.97998,65.239488 c 0,0 -0.43335,0.05831 -1.06867,0.669726 -1.04681,1.00737 -1.47475,2.166193 -2.18385,2.363163 -0.7091,0.19697 -2.79192,-0.297991 -3.18586,-0.02222 -0.39395,0.27576 -0.537,0.312868 -0.34003,0.746208 0.19697,0.433339 3.38526,0.06389 3.0701,1.48208 -0.31515,1.4182 0.0737,2.836738 0.15245,3.782198 0.0788,0.94547 -0.38885,2.048196 -0.31006,2.639116 -0.23517,1.218298 -3.06189,4.842846 -1.6986,5.363497 1.5643,0.05894 3.11105,-3.526942 4.26485,-3.275252 0.55152,0.15758 0.91896,3.757388 0.91896,3.757388 0.31057,0.458287 0.5355,0.317149 0.73666,0.0096 0.007,-9.1e-5 0.35251,-3.599864 0.90133,-3.756679 1.65209,0.165265 3.10008,3.517453 4.31963,3.264917 1.57228,-1.421829 -1.74784,-4.099112 -1.711,-5.363497 0.0788,-0.59092 -0.38834,-1.693645 -0.30955,-2.639115 0.0788,-0.945424 0.46757,-2.363963 0.15245,-3.782163 -0.31515,-1.418189 2.84368,-1.040472 3.04065,-1.473812 0.19698,-0.43334 0.0829,-0.478716 -0.31109,-0.754476 -0.39394,-0.27577 -2.47624,0.219192 -3.18534,0.02222 -0.7091,-0.19697 -1.13704,-1.355794 -2.18385,-2.363164 -0.63532,-0.61141 -1.06918,-0.669726 -1.06918,-0.669726 z"
         clip-path="none"
         style="fill:#453134;fill-opacity:1;stroke:#3d7454;stroke-width:2.5999999;stroke-linecap:round;stroke-linejoin:round;stroke-miterlimit:4;stroke-dasharray:none;stroke-opacity:1;paint-order:stroke fill markers"
         inkscape:connector-curvature="0" />
      <path
         transform="translate(0,-10.517188)"
         clip-path="url(#clipPath1773)"
         sodipodi:nodetypes="scscs"
         inkscape:connector-curvature="0"
         id="path1766"
         d="m 189.95949,84.408806 c 0.37657,4.729462 1.22114,9.928107 -1.89427,7.892803 -3.42107,2.374905 -2.2646,-3.163392 -1.89428,-7.892803 0.34029,-4.345784 0.8481,-7.89282 1.89428,-7.892803 1.04618,6e-6 1.54829,3.547485 1.89427,7.892803 z"
         style="opacity:1;fill:#382727;fill-opacity:1;stroke:none;stroke-width:2;stroke-linecap:round;stroke-linejoin:miter;stroke-miterlimit:4;stroke-dasharray:none;stroke-opacity:1;paint-order:stroke fill markers" />
      <ellipse
         ry="5.7867622"
         rx="0.55515254"
         cy="73.57093"
         cx="188.07401"
         id="path3602"
         style="opacity:1;fill:#593f42;fill-opacity:1;stroke:none;stroke-width:4.26961565;stroke-linecap:round;stroke-linejoin:round;stroke-miterlimit:4;stroke-dasharray:none;stroke-opacity:1;paint-order:stroke fill markers" />
      <ellipse
         style="opacity:1;fill:#382727;fill-opacity:1;stroke:none;stroke-width:2.83580422;stroke-linecap:round;stroke-linejoin:round;stroke-miterlimit:4;stroke-dasharray:none;stroke-opacity:1;paint-order:stroke fill markers"
         id="ellipse1747-7"
         cx="-198.67581"
         cy="62.282787"
         rx="0.52025348"
         ry="2.7240052"
         transform="matrix(-0.99885837,-0.04776987,-0.19272486,0.98125284,0,0)" />
      <ellipse
         transform="matrix(0.99885837,-0.04776987,0.19272486,0.98125284,0,0)"
         ry="2.7240052"
         rx="0.52025348"
         cy="80.417686"
         cx="174.32742"
         id="ellipse1764"
         style="opacity:1;fill:#382727;fill-opacity:1;stroke:none;stroke-width:2.83580422;stroke-linecap:round;stroke-linejoin:round;stroke-miterlimit:4;stroke-dasharray:none;stroke-opacity:1;paint-order:stroke fill markers" />
      <path
         inkscape:connector-curvature="0"
         id="path1778"
         d="m 187.74348,70.418781 c 0,0 -0.22217,1.017297 -0.38587,1.449938 -0.1637,0.432641 -0.1754,0.444336 -0.1754,0.444336 l 0.38587,-0.175395 z"
         style="fill:#593f42;fill-opacity:1;stroke:none;stroke-width:0.26458332px;stroke-linecap:butt;stroke-linejoin:miter;stroke-opacity:1" />
      <path
         inkscape:connector-curvature="0"
         id="path1778-4"
         d="m 188.58057,74.761468 c 0,0 0.0962,1.036818 0.20586,1.486216 0.10962,0.449398 0.11981,0.462434 0.11981,0.462434 L 188.54468,76.4889 Z"
         style="fill:#593f42;fill-opacity:1;stroke:none;stroke-width:0.26458332px;stroke-linecap:butt;stroke-linejoin:miter;stroke-opacity:1" />
    </g>
  </g>
</svg>
